<svg id="Livello_2" data-name="Livello 2" xmlns="http://www.w3.org/2000/svg" viewBox="0 0 283.95 102.76"><defs><style>.cls-1{fill:#44b0e0;}.cls-2{fill:#2d2e83;}</style></defs><title>Pass shopping logo</title><path class="cls-1" d="M379,2321.57c3.08,2.11,4.62,5.51,4.59,10.13l-0.37,18.79a67.79,67.79,0,0,0,.28,7.45,18.5,18.5,0,0,0-4.57,0,94.09,94.09,0,0,1-12.17.76c-10.26-.33-15.41-4.57-15.37-12.6a10,10,0,0,1,3-7.51c4.36-4.12,12.57-4.08,17.09-3.7l0.33,0v-0.34a11.46,11.46,0,0,0-.72-4.89c-2-4-10.33-3.09-15.48-.74,0-.67-0.11-2.94-0.11-2.94-0.16-1.59-.59-3.82-0.72-4.45,3.41-1.31,16.93-4.95,24.22.06m-17.78,21.59a4.2,4.2,0,0,0-1.27,3.13,4.39,4.39,0,0,0,1.51,3.48c2.62,2.27,8.12,1.91,10,1.59l0.26,0,0.06-9.83-0.56,0c-2.7-.18-7.68-0.52-10,1.71" transform="translate(-182.62 -2314.45)"/><path class="cls-1" d="M406.72,2350.61c1.74-.74,2.7-1.83,2.85-3.23,0.32-2.82-3.27-3.52-7.42-4.31-6.46-1.24-14.44-2.78-14.38-12.14,0.06-10.66,10.28-13.48,18.91-14a77.62,77.62,0,0,1,13.45.62c-0.07.54-1.21,9-1.31,9.83-4.21-2.57-12.75-3.29-16.75-1.34a3.72,3.72,0,0,0-2.36,2.93c-0.23,2.49,3,3.17,7.21,4,6.91,1.44,16.44,3.42,15.8,14.76-0.89,8.28-7.7,12.27-20.15,11.88a136.08,136.08,0,0,1-14.61-1.58c0.25-1.61.84-7.13,0.92-9.15,3.6,2.46,13,3.77,17.85,1.69" transform="translate(-182.62 -2314.45)"/><path class="cls-1" d="M447.88,2351c1.85-.79,2.87-1.93,3-3.37,0.37-3-3.64-3.76-8.71-4.66-7.58-1.34-17-3-16.88-13.14,0.08-11.54,12.09-14.66,22.25-15.25a98.79,98.79,0,0,1,15.91.6c-0.07.56-1.45,10-1.57,10.77-4.66-2.63-15.06-3.77-20-1.33a4,4,0,0,0-2.51,3.05c-0.28,2.68,3.57,3.41,8.46,4.34,8.16,1.56,19.44,3.7,18.65,16-1.07,9-9.14,13.35-23.84,12.88-6.17-.19-14.5-1.36-17.17-1.75,0.3-1.73,1-7.73,1.09-9.93,4.29,2.72,15.71,4.11,21.27,1.72" transform="translate(-182.62 -2314.45)"/><path class="cls-1" d="M325.62,2322.28c4.78-1.26,16.08-4.23,21.91.43,2.46,2,3.7,5.13,3.68,9.4,0,4-1.16,7.12-3.39,9.17-3,2.75-8,3.72-14.94,2.9l-0.32,0s-0.05,11.42-.05,12l-8.79-.25c0-.56.28-27.31,0.28-27.31,0-.42,0-0.81,0-1.19a21.89,21.89,0,0,0-.33-4.68l1.95-.45m7.21,5.58-0.22.06,0,9.28,0.92,0.08c2.26,0.2,6,.55,8.12-1.42a4.88,4.88,0,0,0,1.4-3.68,4.28,4.28,0,0,0-1.49-3.51c-2.71-2.2-8.08-1-8.68-.81" transform="translate(-182.62 -2314.45)"/><path class="cls-2" d="M317.21,2386.77V2371l3.32,0.07c3.53,0.13,4.8,5.19,4.8,7.91s-1.3,7.69-4.8,7.79Zm-7.68-24,0,48.28,7.71-.37v-16l4.32-.1c7.72-.28,11.51-9.1,11.51-15.53s-3.81-15.29-11.53-15.67c-4-.19-8-0.44-12-0.58" transform="translate(-182.62 -2314.45)"/><path class="cls-2" d="M289,2386.7v-16.61l3.32,0.07c3.53,0.14,4.8,5.46,4.8,8.32s-1.3,8.09-4.8,8.19Zm-7.68-25.15,0,50.7,7.71-.33V2395l4.32-.11c7.72-.3,11.51-9.57,11.51-16.34s-3.78-16.05-11.5-16.45c-4-.2-8-0.38-12-0.53" transform="translate(-182.62 -2314.45)"/><path class="cls-2" d="M257.69,2387c0-2.65.63-16.32,4.6-16.32s4.74,13.59,4.74,16.25-0.72,16.32-4.65,16.32-4.7-13.57-4.7-16.25m-9.55.08c0,8.46,2.53,26.68,14.28,26.68,11.09,0,14.17-19.07,14.17-26.92s-3.26-26.76-14.33-26.76c-11.67,0-14.12,18.68-14.12,27" transform="translate(-182.62 -2314.45)"/><polygon class="cls-2" points="158.35 87.52 153.09 87.76 153.16 95.39 172.14 94.54 172.06 86.9 166.8 87.13 166.51 57.52 171.77 57.65 171.69 50.35 152.76 49.55 152.83 57.18 158.08 57.31 158.35 87.52"/><path class="cls-2" d="M380.85,2386.63l-6.45-10.46-6.46-10.8c-0.09-.06-5.51-0.23-6.11-0.25l0.6,43.86,8.19-.51-0.31-21.27q3.21,5.22,6.46,10.4l5.82,9.08,0.7,1.08c2-.08,4.11-0.19,6.15-0.32l-0.68-41.19-8.24-.35Z" transform="translate(-182.62 -2314.45)"/><path class="cls-2" d="M206.17,2398.54c0-18.14-14.36-17.36-14.36-25.07,0-1.67,1.14-4.2,2.86-4.2,3.45,0,5.79,3,7.73,5.77,0.3-.93,3.08-9.44,3.08-9.57,0-1-4.2-5.65-5.13-6.4a9.5,9.5,0,0,0-6.09-2.45c-7.69,0-11.65,10.1-11.65,17.38,0,19.34,14.31,18,14.31,25.68,0,2.06-1.13,4.84-3.25,4.84-3.77,0-7.22-3.69-9.49-6.68-0.37,3.83-1.15,8.1-1.15,11.92,0,1,4.21,5.08,5.16,5.72a9.29,9.29,0,0,0,5.14,1.72c8.44,0,12.84-10.55,12.84-18.67" transform="translate(-182.62 -2314.45)"/><polygon class="cls-2" points="40.03 65.12 40.05 50.26 40.06 44.52 29.43 44.03 29.35 100.84 39.98 100.37 40.02 75.48 49.28 75.24 49.24 99.95 59.94 99.48 59.94 45.39 49.31 44.94 49.29 65.16 40.03 65.12"/><path class="cls-2" d="M410.8,2394.88a9.77,9.77,0,0,1-3.22.72c-3.52,0-5.37-4.23-5.37-8.7,0-5.45,2.86-8.92,6.71-8.92,2.74,0,5.21,1.84,7.71,3.13v-10.47a15.16,15.16,0,0,0-1.71-1.51,13.74,13.74,0,0,0-8.12-2.81c-8.58,0-13.64,9.48-13.64,20.74,0,10.19,4.49,20.41,12.52,20.41,3.7,0,6.29-1.66,9-5,0.22,0.25,2.35,2.71,2.37,2.71a13.92,13.92,0,0,0,1.84-.25v-18.47l-8.14.13Z" transform="translate(-182.62 -2314.45)"/></svg>