<svg id="Livello_2" data-name="Livello 2" xmlns="http://www.w3.org/2000/svg" viewBox="0 0 867.88 406.84"><defs><style>.cls-1{fill:#edadb4;}.cls-2{fill:#f9d5bf;}.cls-3{fill:#dc7e7e;}.cls-4{fill:#faeae8;}.cls-5{fill:#f8c9a5;}.cls-6{fill:#fbf0e5;}.cls-7{fill:#ffedd7;}.cls-8{fill:#e7afa9;}.cls-9{fill:#ca5358;}.cls-10{fill:#fce7cd;}.cls-11{fill:#f0cdce;}.cls-12{fill:#e9aea2;}.cls-13{fill:#d9d9d9;}.cls-14,.cls-15,.cls-17,.cls-24{fill:none;}.cls-14,.cls-15{stroke:#b1b1b1;stroke-width:0.73px;}.cls-14,.cls-17,.cls-24{stroke-linecap:round;stroke-linejoin:round;}.cls-16{fill:#6b606e;}.cls-17{stroke:#1d1d1b;stroke-width:1.66px;}.cls-18{fill:#fff;}.cls-19{fill:#1d1d1b;}.cls-20{fill:#9dc5e0;}.cls-21{fill:#facca6;}.cls-22{fill:#addae3;}.cls-23{fill:#fbd7c0;}.cls-24{stroke:#fff;stroke-width:3.29px;}.cls-25{fill:#ebb0a3;}.cls-26{fill:#e2edf9;}.cls-27{fill:#e20613;}</style></defs><title>Pass shopping consumer hero image</title><path class="cls-1" d="M762.83,2751.38h31v-30.67h-31v30.67Zm-32.7,0h24.27v-30.65l8.46-8.45h30.95l8.46,8.45v30.65h24.27v137.4H730.14v-137.4Z" transform="translate(-325 -2482.38)"/><path class="cls-2" d="M663,2671.18h58.92c-1.8-20.19-14.3-35.83-29.46-35.83S664.75,2651,663,2671.18m-24.66,0h16.19c1.72-21.51,18-38.38,37.93-38.38s36.21,16.87,37.93,38.38h33.87l-13.78,217.6h-116l-17.76-217.6h21.66Z" transform="translate(-325 -2482.38)"/><polygon class="cls-3" points="405.14 269 405.14 406.4 425.44 406.4 436.53 231.24 429.41 238.35 429.41 269 405.14 269"/><path class="cls-4" d="M630.58,2720.35c0,19.81-13.17,35.88-29.4,35.88s-29.4-16.07-29.4-35.88h58.8Zm40.8,168.43-6-177.21L543,2713l-12,174.28Z" transform="translate(-325 -2482.38)"/><path class="cls-5" d="M634.36,2888.39l37,0.39-6-177.21-45.42.54,0.67,8.24h9.94a40.28,40.28,0,0,1-7.94,24.47Z" transform="translate(-325 -2482.38)"/><path class="cls-6" d="M497.86,2760.33H466.14c0.27-5.79,7.27-10.44,15.86-10.44s15.59,4.64,15.86,10.44m19.54,128.44-3.33-142.21H449.93l-3.33,142.21h70.81Z" transform="translate(-325 -2482.38)"/><path class="cls-5" d="M436.57,2678.11l-84.86,1.95v-33.35h84.86v31.41ZM325,2888.18l139.81,0.6-4.2-211.22-21,.48v-37.34H348.71v39.42l-18.91.43Z" transform="translate(-325 -2482.38)"/><polygon class="cls-7" points="121.6 406.32 139.81 406.4 136.98 264.19 124.93 264.19 121.6 406.32"/><polygon class="cls-1" points="477.6 269 475.28 406.4 501.55 406.4 501.55 269 477.6 269"/><path class="cls-8" d="M757,2814.49c0.13-1.28.28-2.08,0.28-2.88,0-6.84.15-13.69-.12-20.52a21.06,21.06,0,0,0-17.88-20.23c-10.52-1.68-21.05,4-24.32,13.71s-1.19,19.86-1.6,29.91H757Zm-50,.19c0-9.06-.46-17.39.1-25.65,1-14.34,13.94-25.37,28.77-25.16,14.64,0.21,27.1,11.38,27.92,25.58,0.46,8.12.08,16.28,0.08,25,2.17,0.1,3.89.24,5.6,0.24q12,0,24,0c3.55,0,5.29,1.57,4.38,5.19-5.43,21.82-10.82,43.65-16.55,65.39-0.43,1.65-3.37,3.75-5.16,3.76-27.09.24-54.18,0.15-81.28,0.19-3.14,0-4.71-1.38-5.45-4.39q-8-32.27-16.13-64.49c-1.07-4.26.77-5.7,4.75-5.68,9.27,0.06,18.54,0,29,0" transform="translate(-325 -2482.38)"/><path class="cls-9" d="M730.14,2888.78h47.17c1.69-.58,3.67-2.19,4-3.52,5.73-21.74,11.12-43.57,16.55-65.39,0.9-3.62-.83-5.2-4.38-5.19q-12,0-24,0c-1.72,0-3.44-.14-5.6-0.24,0-8.7.38-16.86-.08-25-0.81-14.2-13.27-25.37-27.92-25.58a29.3,29.3,0,0,0-5.75.5v6.92a23.29,23.29,0,0,1,9.13-.42,21.06,21.06,0,0,1,17.88,20.23c0.27,6.83.11,13.68,0.12,20.52,0,0.8-.15,1.59-0.28,2.88H730.14v74.29Z" transform="translate(-325 -2482.38)"/><path class="cls-10" d="M361.85,2800.68c2.79-7.27,14.7,6.81,21,13.46,0,0-5.64-3.21-6.66-3.71-7.1-3.51-15.13-7.58-14.3-9.75m30.07,8.42c-2.41,3.46-2.51,4-3.27,5,0-5.28,5.26-28.63,8.26-19.73,1.24,3.68-2.78,11.51-5,14.69m-27.65,2.65c3.73,0.79,8.4,1.71,12.9,2.39H340.86v10.09H344v64.54H425.4v-64.54h3.1v-10.09H390.65c6.66-7.75,34.36-17.25,26.4-23.55-10.11-8-16.7-24.32-28.07-12.37-7.72,11.45-3.08,23.16-2.53,34.55-5.34-5.91-14.72-41.51-27.57-27.17-5.19,5.79-17.72,9.29-9.67,20.19,3.13,4.23,9.43,4.76,15.07,6" transform="translate(-325 -2482.38)"/><path class="cls-8" d="M591.33,2761.63H537.26c3.85-11.91,14.81-19,27.87-18.73s23.54,7.67,26.2,18.73m69.57,37.44c0-19.33-14.52-35.72-37.3-36.83-7-.34-14.14-0.05-21.26-0.05-5.4-16.66-17.24-26.88-37.58-27-20.79-.13-32.67,10.34-38.26,27.08-7.44,0-14.82-.33-22.14.07-17.38.93-31.38,11.11-33.33,25.49-0.53,3.93-2.27,8.13-.76,12v7.41h0v45.08c-1.51,3.87.23,8.06,0.76,12,1.66,12.26,12.09,21.44,25.89,24.47H631.75c18.86-4.26,29.15-19.71,29.15-35.71v-54Z" transform="translate(-325 -2482.38)"/><path class="cls-11" d="M531,2888.78l102.27-.4c18.08-4.72,27.66-19.31,27.66-35.31v-54c0-19.33-14.52-35.72-37.3-36.83-7-.34-14.14-0.05-21.26-0.05a50.76,50.76,0,0,0-2.38-6c-11-.56-20.49-8.52-25.12-19.95a50.85,50.85,0,0,0-10.08-1c-9.82-.06-17.63,2.27-23.75,6.48l-1,14.13c5.12-8.31,14.36-13.14,25.09-12.9,13,0.29,23.54,7.67,26.2,18.73h-51.7Z" transform="translate(-325 -2482.38)"/><path class="cls-12" d="M660.9,2853.07v-54c0-19.2-14.33-35.47-36.83-36.78L634.33,2888c17.36-5,26.57-19.31,26.57-35" transform="translate(-325 -2482.38)"/><path class="cls-10" d="M513.79,2762.16c-3.37,0-6.73,0-10.08.18-17.38.93-32.09,11.43-34,25.82-0.53,3.93.18,72.22,0.72,76.16,1.66,12.26,12.09,21.44,25.89,24.47h20.49Z" transform="translate(-325 -2482.38)"/><polygon class="cls-13" points="733.48 336.86 733.48 259.95 695.62 259.95 646.42 210.74 597.2 259.95 559.35 259.95 559.35 336.86 733.48 336.86"/><line class="cls-14" x1="576.09" y1="328.16" x2="594.74" y2="328.16"/><path class="cls-14" d="M919.87,2782.19h-4.5s-2.79-.66-2.79,4.06v12.63a3.42,3.42,0,0,0,3.62,3.43h3.62Z" transform="translate(-325 -2482.38)"/><path class="cls-15" d="M900.1,2819.32a24.83,24.83,0,1,0-47.59.1" transform="translate(-325 -2482.38)"/><path class="cls-16" d="M893.22,2650.05s14.41,4.29,31.94-3.9,70.63-42.46,91.22-38.57a166.27,166.27,0,0,0,39.28,2.41s-9-10.2-23.37-26.56-21.43-39.35-21.43-39.35-31.94-36.55-62.33-30.35-63.89,81.77-63.5,83.33,8.18,53,8.18,53" transform="translate(-325 -2482.38)"/><path class="cls-17" d="M893.22,2650.05s14.41,4.29,31.94-3.9,70.63-42.46,91.22-38.57a166.27,166.27,0,0,0,39.28,2.41s-9-10.2-23.37-26.56-21.43-39.35-21.43-39.35-31.94-36.55-62.33-30.35-63.89,81.77-63.5,83.33S893.22,2650.05,893.22,2650.05Z" transform="translate(-325 -2482.38)"/><path class="cls-18" d="M950.09,2620.83s11.41,7.55-3.78,24.15-31.67,35.45-32.84,41.29,19.09,27.27,24.54,24.93,100.9-32.72,104-34.67,35.45-18.31,37-24.54,5.06-25.71,4.29-28.83-10.37-18.1-10.37-18.1-10.81-7-33.07-7c-2.73,0-6.82.78-23.46,2.09-9,.71-16.85-10.86-16.85-10.86Z" transform="translate(-325 -2482.38)"/><path class="cls-17" d="M950.09,2620.83s11.41,7.55-3.78,24.15-31.67,35.45-32.84,41.29,19.09,27.27,24.54,24.93,100.9-32.72,104-34.67,35.45-18.31,37-24.54,5.06-25.71,4.29-28.83-10.37-18.1-10.37-18.1-10.81-7-33.07-7c-2.73,0-6.82.78-23.46,2.09-9,.71-16.85-10.86-16.85-10.86Z" transform="translate(-325 -2482.38)"/><path class="cls-18" d="M903.35,2580.73s16,43.6,37.79,54.52c15.58,7.79,39.35,16.36,51.81,8.57,10.54-6.59,17.92-31.55,18.31-48.31a108.86,108.86,0,0,0-3.51-30s7.26,9,7.79-6.23c0.84-23.76-8.13-28.44-14.8-25.71s-3.12,4.67-3.12,4.67-22.59-28.44-49.86-23-48.33,5.84-47.23,30c1.07,23.29,2.82,35.47,2.82,35.47" transform="translate(-325 -2482.38)"/><path class="cls-17" d="M903.35,2580.73s16,43.6,37.79,54.52c15.58,7.79,39.35,16.36,51.81,8.57,10.54-6.59,17.92-31.55,18.31-48.31a108.86,108.86,0,0,0-3.51-30s7.26,9,7.79-6.23c0.84-23.76-8.13-28.44-14.8-25.71s-3.12,4.67-3.12,4.67-22.59-28.44-49.86-23-48.33,5.84-47.23,30C901.59,2568.55,903.35,2580.73,903.35,2580.73Z" transform="translate(-325 -2482.38)"/><path class="cls-16" d="M923.8,2494.62s-29.41-2.34-42.66,33.11-10.52,76.74-21.82,95.83-20.26,23-20.26,23,5.67,6.93,24.15,12.07c4.29,1.19,13.63-30.77,13.63-30.77l-5.45,34.28s20,5.64,35.84,7.66,18.36-1,18.36-1-7.45-30.82-.83-49.91,17.53-36.62,19.48-58.82-2.73-29.61-2.73-29.61,6.62,9.35,24.15,10.91,24.15-1.56,30.78,3.12,9,13.63,9,13.63-5.5-14.8-3.12-20.65,4.29-3.9,4.29-3.9-3.52-20.56-15.53-33.11c-33.55-35.06-67.25-5.84-67.25-5.84" transform="translate(-325 -2482.38)"/><path class="cls-17" d="M923.8,2494.62s-29.41-2.34-42.66,33.11-10.52,76.74-21.82,95.83-20.26,23-20.26,23,5.67,6.93,24.15,12.07c4.29,1.19,13.63-30.77,13.63-30.77l-5.45,34.28s20,5.64,35.84,7.66,18.36-1,18.36-1-7.45-30.82-.83-49.91,17.53-36.62,19.48-58.82-2.73-29.61-2.73-29.61,6.62,9.35,24.15,10.91,24.15-1.56,30.78,3.12,9,13.63,9,13.63-5.5-14.8-3.12-20.65,4.29-3.9,4.29-3.9-3.52-20.56-15.53-33.11C957.49,2465.4,923.8,2494.62,923.8,2494.62Z" transform="translate(-325 -2482.38)"/><path class="cls-19" d="M981.26,2578.76a2.73,2.73,0,1,0-2.73-2.73,2.73,2.73,0,0,0,2.73,2.73" transform="translate(-325 -2482.38)"/><path class="cls-19" d="M938,2598.24a2.73,2.73,0,1,0-2.73-2.73,2.73,2.73,0,0,0,2.73,2.73" transform="translate(-325 -2482.38)"/><path class="cls-17" d="M964.51,2608.76s11.3,3.12,14-7.79" transform="translate(-325 -2482.38)"/><path class="cls-17" d="M961.39,2623.17s7.31,2.64,18-4.67c8.52-5.84,10.86-13.43,10.86-13.43s-0.78,18.14-6.23,22.16S961.39,2623.17,961.39,2623.17Z" transform="translate(-325 -2482.38)"/><path class="cls-20" d="M947.76,2643.82s-2.73,6.52.78,21.43c3.33,14.17,7,26.44,7,26.44a26.85,26.85,0,0,1-4.49.83c-1.36,0-8-24.93-8.76-36.62-0.47-7,.78-7,0.78-7Z" transform="translate(-325 -2482.38)"/><path class="cls-17" d="M947.76,2643.82s-2.73,6.52.78,21.43c3.33,14.17,7,26.44,7,26.44a26.85,26.85,0,0,1-4.49.83c-1.36,0-8-24.93-8.76-36.62-0.47-7,.78-7,0.78-7Z" transform="translate(-325 -2482.38)"/><path class="cls-20" d="M1016.12,2600.14s7.6,3.49,15.39,16.57a173.56,173.56,0,0,1,12.08,24.38l3.51-2.34s-4-12.92-10.13-22-9-11.75-12.08-14.58-4.24-2-4.24-2h-4.53Z" transform="translate(-325 -2482.38)"/><path class="cls-17" d="M1016.12,2600.14s7.6,3.49,15.39,16.57a173.56,173.56,0,0,1,12.08,24.38l3.51-2.34s-4-12.92-10.13-22-9-11.75-12.08-14.58-4.24-2-4.24-2h-4.53Z" transform="translate(-325 -2482.38)"/><path class="cls-21" d="M855.12,2720.24h38.62v-37.62H855.12v37.62Zm-40.72,0h30.22v-37.59l10.54-10.37H893.7l10.53,10.37v37.59h30.23v168.54H814.41V2720.24Z" transform="translate(-325 -2482.38)"/><path class="cls-17" d="M963.68,2550.32a18.12,18.12,0,0,1,17.58,0" transform="translate(-325 -2482.38)"/><path class="cls-22" d="M925.16,2669.14s3.89,26.88,45.19,15.19,63.5-39.35,71.29-52.59,7.79-19.67,4.09-25.52c-3.53-5.57-21.82-6.62-21.82-6.62a84.56,84.56,0,0,1,32.58-1.36c26.45,3.93,44,12.08,55.66,24.93,9,9.94,74,55.32,74,55.32l-46.36,16.75s-28-9.35-35.84-13.63a144.79,144.79,0,0,0-16-7.4s4.29,45.19,4.29,66.61-15.58,83.76-13.63,100.51,0.78,36.33.78,36.33l-126.22.83s10.47-26.74,10.47-48.84c0-31.16-3.46-66.61-9.3-77.13a46.06,46.06,0,0,0-15.19-16,130.74,130.74,0,0,0-23,25.71,254,254,0,0,0-16.54,29.61l-53.58,14a543.33,543.33,0,0,1,33.5-67.78c20.08-33.89,17.14-30.88,28.44-47.58s17.14-21.37,17.14-21.37" transform="translate(-325 -2482.38)"/><path class="cls-17" d="M925.16,2669.14s3.89,26.88,45.19,15.19,63.5-39.35,71.29-52.59,7.79-19.67,4.09-25.52c-3.53-5.57-21.82-6.62-21.82-6.62a84.56,84.56,0,0,1,32.58-1.36c26.45,3.93,44,12.08,55.66,24.93,9,9.94,74,55.32,74,55.32l-46.36,16.75s-28-9.35-35.84-13.63a144.79,144.79,0,0,0-16-7.4s4.29,45.19,4.29,66.61-15.58,83.76-13.63,100.51,0.78,36.33.78,36.33l-126.22.83s10.47-26.74,10.47-48.84c0-31.16-3.46-66.61-9.3-77.13a46.06,46.06,0,0,0-15.19-16,130.74,130.74,0,0,0-23,25.71,254,254,0,0,0-16.54,29.61l-53.58,14a543.33,543.33,0,0,1,33.5-67.78c20.08-33.89,17.14-30.88,28.44-47.58S925.16,2669.14,925.16,2669.14Z" transform="translate(-325 -2482.38)"/><path class="cls-23" d="M1044.85,2711.63c0,20.78-13.81,37.63-30.83,37.63s-30.83-16.85-30.83-37.63h61.66Zm42.79,176.62L1081.35,2704,953,2704l-11.67,184.26Z" transform="translate(-325 -2482.38)"/><path class="cls-18" d="M1054.11,2687.45s-46.39,12.47-51,14.41-11.3,11.69-15.19,17.14-1.95,11.89-2.73,15.29,3.76,1.84,4.29-5.56c0.39-5.45,7-14.58,9.74-16.53s6.62-3.57,5.45-1.78-6.23,8.57-7.79,11.69-0.39,15.78-.39,18.11c0,1.92,3.89,3.21,4.29-1.36s-0.39-14,.78-15.19,8.57-11.46,10.91-12.86-3.51,8.18-3.51,14-0.78,19.09.78,19.48,3.89-3.31,4.67-7.4-0.88-8.41,1.17-14c1.84-5.07,6.62-9.35,6.62-9.35s-0.22,14.7,0,20.75a60.84,60.84,0,0,0,.58,7.5s2.14,3.31,2.92-1.56a140.35,140.35,0,0,0,1.56-16.94c0-3.9,1.56-5.43,3.12-7.39s22.59-4.85,28-7,5.45-4.29,5.45-4.29,62.72,9.77,90.77,11.31,38.18-14.82,37.4-23.78-6.23-21.82-31.55-17.92-48.7,10.52-66.22,10.91-20.65,1.17-40.13,2.34" transform="translate(-325 -2482.38)"/><path class="cls-17" d="M1054.11,2687.45s-46.39,12.47-51,14.41-11.3,11.69-15.19,17.14-1.95,11.89-2.73,15.29,3.76,1.84,4.29-5.56c0.39-5.45,7-14.58,9.74-16.53s6.62-3.57,5.45-1.78-6.23,8.57-7.79,11.69-0.39,15.78-.39,18.11c0,1.92,3.89,3.21,4.29-1.36s-0.39-14,.78-15.19,8.57-11.46,10.91-12.86-3.51,8.18-3.51,14-0.78,19.09.78,19.48,3.89-3.31,4.67-7.4-0.88-8.41,1.17-14c1.84-5.07,6.62-9.35,6.62-9.35s-0.22,14.7,0,20.75a60.84,60.84,0,0,0,.58,7.5s2.14,3.31,2.92-1.56a140.35,140.35,0,0,0,1.56-16.94c0-3.9,1.56-5.43,3.12-7.39s22.59-4.85,28-7,5.45-4.29,5.45-4.29,62.72,9.77,90.77,11.31,38.18-14.82,37.4-23.78-6.23-21.82-31.55-17.92-48.7,10.52-66.22,10.91S1073.58,2686.28,1054.11,2687.45Z" transform="translate(-325 -2482.38)"/><path class="cls-18" d="M844.13,2810.16c-6.35,14.57,7.79,32.33,30.78,26.49s63.89-34.67,74.8-41.29,13.63-6.62,13.63-6.62,11.3,1.61,19.09.39,8.57-1.22,8.57-1.22,10.13,9.2,16.17,12.71,17.92,8.38,20.06,8,2.14-1-1-3.31-6.62-4.09-12.66-8-13.25-10.91-12.47-12.08,9.54,3.7,15,7,16.36,10.91,19.67,11.69,7-1.56,2.73-4.67-16.17-12.66-22.79-16.36S1007,2778,1007,2778a2.1,2.1,0,0,1,3.35-.74c2.34,1.56,6.86,3,27.23,18.27,3.53,2.65,7.45,3.22,8.18,1.75s-1-4.6-4.29-7.21c-5.77-4.55-19.75-14.8-24.66-17.57-3.88-2.19-4-3.47-3-3.47s9.54,2.53,13.05,5.06,11.88,10.32,14.22,12.47,5.65,3.12,7.21,2.73,2.92-1.75.19-4.48-8.57-9.15-12.27-12.66-11.1-7-16.75-10.52-9.54-5.65-9.54-5.65,1.36-1.17,5.84-1.36,9.74-4.87,10.91-7.79,0.19-7-3.7-5.45-8.77,5.26-14.8,5.65-16.42,4.49-26.49,8.18c-11.69,4.29-24.15,10.13-23.76,10.13s-29.41,14.41-45.29,17.92-57.95,2.73-68.46,26.88" transform="translate(-325 -2482.38)"/><path class="cls-17" d="M844.13,2810.16c-6.35,14.57,7.79,32.33,30.78,26.49s63.89-34.67,74.8-41.29,13.63-6.62,13.63-6.62,11.3,1.61,19.09.39,8.57-1.22,8.57-1.22,10.13,9.2,16.17,12.71,17.92,8.38,20.06,8,2.14-1-1-3.31-6.62-4.09-12.66-8-13.25-10.91-12.47-12.08,9.54,3.7,15,7,16.36,10.91,19.67,11.69,7-1.56,2.73-4.67-16.17-12.66-22.79-16.36S1007,2778,1007,2778a2.1,2.1,0,0,1,3.35-.74c2.34,1.56,6.86,3,27.23,18.27,3.53,2.65,7.45,3.22,8.18,1.75s-1-4.6-4.29-7.21c-5.77-4.55-19.75-14.8-24.66-17.57-3.88-2.19-4-3.47-3-3.47s9.54,2.53,13.05,5.06,11.88,10.32,14.22,12.47,5.65,3.12,7.21,2.73,2.92-1.75.19-4.48-8.57-9.15-12.27-12.66-11.1-7-16.75-10.52-9.54-5.65-9.54-5.65,1.36-1.17,5.84-1.36,9.74-4.87,10.91-7.79,0.19-7-3.7-5.45-8.77,5.26-14.8,5.65-16.42,4.49-26.49,8.18c-11.69,4.29-24.15,10.13-23.76,10.13s-29.41,14.41-45.29,17.92S854.65,2786,844.13,2810.16Z" transform="translate(-325 -2482.38)"/><path class="cls-24" d="M908.21,2512.61s-18.79,9.4-23.49,41.11" transform="translate(-325 -2482.38)"/><path class="cls-25" d="M848.8,2812.3c2.42-6.23,12.75,5.84,18.18,11.54,0,0-4.89-2.75-5.78-3.18-6.16-3-13.13-6.49-12.4-8.36m26.09,7.22c-2.09,3-2.18,3.44-2.83,4.32,0-4.53,4.56-24.54,7.17-16.91,1.08,3.15-2.41,9.87-4.33,12.59m-24,2.27c3.24,0.68,7.29,1.47,11.19,2H830.58v8.65h2.69v55.32h70.67v-55.32h2.69v-8.65H873.79c5.78-6.64,29.81-14.79,22.91-20.18-8.77-6.86-14.49-20.85-24.36-10.61-6.7,9.82-2.68,19.86-2.2,29.62-4.63-5.07-12.77-35.58-23.92-23.29-4.5,5-15.38,8-8.39,17.31,2.71,3.63,8.18,4.08,13.08,5.1" transform="translate(-325 -2482.38)"/><path class="cls-24" d="M917.61,2692.32s-7.75,9.39-21.14,38.76" transform="translate(-325 -2482.38)"/><path class="cls-24" d="M1079.7,2612.45s9.4,2.35,22.32,14.1" transform="translate(-325 -2482.38)"/><path class="cls-26" d="M950.48,2628.42a6.81,6.81,0,1,0-6.81-6.81,6.81,6.81,0,0,0,6.81,6.81" transform="translate(-325 -2482.38)"/><path class="cls-26" d="M995.37,2602.58a6.81,6.81,0,1,0-6.81-6.81,6.81,6.81,0,0,0,6.81,6.81" transform="translate(-325 -2482.38)"/><path class="cls-27" d="M1122.7,2724.51h41.91c-1.28-13.22-10.18-23.46-21-23.46s-19.68,10.24-21,23.46m-17.54,0h11.52a27,27,0,0,1,54,0h9.17l5.12,164.55h-82.55Z" transform="translate(-325 -2482.38)"/></svg>