<svg id="Livello_5" data-name="Livello 5" xmlns="http://www.w3.org/2000/svg" viewBox="0 0 42.14 42.22"><defs><style>.cls-1{fill:#e10514;}</style></defs><title>Pass shopping consumer-location-lock</title><path class="cls-1" d="M503.55,2981.53c0-.43.1-0.7,0.09-1,0-2.3.05-4.61,0-6.91a7.09,7.09,0,0,0-6-6.81,7.32,7.32,0,0,0-8.19,4.62c-1.1,3.29-.4,6.69-0.54,10.08h14.7Zm-16.83.06c0-3.05-.16-5.86,0-8.64a9.61,9.61,0,0,1,19.09.14c0.16,2.73,0,5.48,0,8.41,0.73,0,1.31.08,1.89,0.08h8.08c1.2,0,1.78.53,1.48,1.75-1.83,7.35-3.65,14.7-5.57,22a2.29,2.29,0,0,1-1.74,1.27c-9.13.08-18.25,0.05-27.38,0.07a1.67,1.67,0,0,1-1.84-1.48q-2.69-10.87-5.43-21.72c-0.36-1.43.26-1.92,1.6-1.91,3.12,0,6.25,0,9.76,0" transform="translate(-475.25 -2964.48)"/></svg>