<svg id="Livello_1" data-name="Livello 1" xmlns="http://www.w3.org/2000/svg" xmlns:xlink="http://www.w3.org/1999/xlink" viewBox="0 0 1375.6 200"><defs><style>.cls-1{fill:none;}.cls-2{fill:#faefe4;}.cls-3{fill:#f8e6d6;}.cls-4{clip-path:url(#clip-path);}.cls-5{clip-path:url(#clip-path-2);}.cls-6{clip-path:url(#clip-path-3);}.cls-7{clip-path:url(#clip-path-4);}.cls-8{fill:url(#Sfumatura_senza_nome_2);}.cls-9{fill:#f4ad80;}.cls-10{fill:#ffeedc;}.cls-11{fill:#f9ddbe;}.cls-12{fill:#f6d1d2;}.cls-13{fill:#ebdadc;}.cls-14{fill:#e98036;}.cls-15{clip-path:url(#clip-path-5);}.cls-16{fill:#f0a87b;}.cls-17{clip-path:url(#clip-path-6);}.cls-18{fill:#fff;}.cls-19{fill:#c9171a;}.cls-20{clip-path:url(#clip-path-7);}.cls-21{clip-path:url(#clip-path-8);}.cls-22{clip-path:url(#clip-path-9);}.cls-23{clip-path:url(#clip-path-10);}.cls-24{fill:url(#Sfumatura_senza_nome_2-2);}.cls-25{clip-path:url(#clip-path-11);}.cls-26{clip-path:url(#clip-path-12);}.cls-27{clip-path:url(#clip-path-13);}.cls-28{clip-path:url(#clip-path-14);}.cls-29{clip-path:url(#clip-path-15);}.cls-30{clip-path:url(#clip-path-16);}.cls-31{fill:url(#Sfumatura_senza_nome_2-3);}.cls-32{clip-path:url(#clip-path-17);}.cls-33{clip-path:url(#clip-path-18);}</style><clipPath id="clip-path" transform="translate(-1412 -1766.05)"><path class="cls-1" d="M2375.87,1793.28a8.94,8.94,0,1,0,8.92-8.38,8.66,8.66,0,0,0-8.92,8.38"/></clipPath><clipPath id="clip-path-2" transform="translate(-1412 -1766.05)"><path class="cls-1" d="M2398.85,1793.28a8.94,8.94,0,1,0,8.92-8.38,8.66,8.66,0,0,0-8.92,8.38"/></clipPath><clipPath id="clip-path-3" transform="translate(-1412 -1766.05)"><path class="cls-1" d="M2420.58,1793.28a8.94,8.94,0,1,0,8.92-8.38,8.66,8.66,0,0,0-8.92,8.38"/></clipPath><clipPath id="clip-path-4" transform="translate(-1412 -1766.05)"><polygon class="cls-1" points="2264.11 1903.57 2323.32 1903.57 2293.72 1888.76 2264.11 1903.57"/></clipPath><linearGradient id="Sfumatura_senza_nome_2" x1="3087.14" y1="4295.71" x2="3087.81" y2="4295.71" gradientTransform="matrix(0, 267.02, 267.02, 0, -1146163.75, -824361.33)" gradientUnits="userSpaceOnUse"><stop offset="0" stop-color="#c2e0db"/><stop offset="1" stop-color="#b9dbd3"/></linearGradient><clipPath id="clip-path-5" transform="translate(-1412 -1766.05)"><path class="cls-1" d="M2606.69,1900.51c0,11.88,10.26,21.53,22.94,21.53s22.94-9.66,22.94-21.53-10.3-21.55-22.94-21.55-22.94,9.63-22.94,21.55"/></clipPath><clipPath id="clip-path-6" transform="translate(-1412 -1766.05)"><path class="cls-1" d="M2638.06,1936.57a9.13,9.13,0,0,0,9.4,8.83c5.19,0,9.42-4,9.42-8.83s-4.23-8.84-9.42-8.84a9.12,9.12,0,0,0-9.4,8.84"/></clipPath><clipPath id="clip-path-7" transform="translate(-1412 -1766.05)"><path class="cls-1" d="M1520.69,1809.08a8.12,8.12,0,1,0,8.1-7.62,7.87,7.87,0,0,0-8.1,7.62"/></clipPath><clipPath id="clip-path-8" transform="translate(-1412 -1766.05)"><path class="cls-1" d="M1541.56,1809.08a8.12,8.12,0,1,0,8.11-7.62,7.87,7.87,0,0,0-8.11,7.62"/></clipPath><clipPath id="clip-path-9" transform="translate(-1412 -1766.05)"><path class="cls-1" d="M1561.31,1809.08a8.12,8.12,0,1,0,8.1-7.62,7.87,7.87,0,0,0-8.1,7.62"/></clipPath><clipPath id="clip-path-10" transform="translate(-1412 -1766.05)"><polygon class="cls-1" points="1419.15 1909.29 1472.95 1909.29 1446.05 1895.83 1419.15 1909.29"/></clipPath><linearGradient id="Sfumatura_senza_nome_2-2" x1="3087.21" y1="4292.53" x2="3087.83" y2="4292.53" xlink:href="#Sfumatura_senza_nome_2"/><clipPath id="clip-path-11" transform="translate(-1412 -1766.05)"><path class="cls-1" d="M1730.41,1906.5c0,10.79,9.32,19.56,20.84,19.56s20.84-8.77,20.84-19.56-9.35-19.58-20.84-19.58-20.84,8.75-20.84,19.58"/></clipPath><clipPath id="clip-path-12" transform="translate(-1412 -1766.05)"><path class="cls-1" d="M1758.91,1939.27a8.57,8.57,0,1,0,8.54-8,8.29,8.29,0,0,0-8.54,8"/></clipPath><clipPath id="clip-path-13" transform="translate(-1412 -1766.05)"><path class="cls-1" d="M1919.33,1793.28a8.94,8.94,0,1,0,8.92-8.38,8.66,8.66,0,0,0-8.92,8.38"/></clipPath><clipPath id="clip-path-14" transform="translate(-1412 -1766.05)"><path class="cls-1" d="M1942.3,1793.28a8.94,8.94,0,1,0,8.92-8.38,8.66,8.66,0,0,0-8.92,8.38"/></clipPath><clipPath id="clip-path-15" transform="translate(-1412 -1766.05)"><path class="cls-1" d="M1964,1793.28a8.94,8.94,0,1,0,8.92-8.38,8.66,8.66,0,0,0-8.92,8.38"/></clipPath><clipPath id="clip-path-16" transform="translate(-1412 -1766.05)"><polygon class="cls-1" points="1807.57 1903.57 1866.78 1903.57 1837.17 1888.76 1807.57 1903.57"/></clipPath><linearGradient id="Sfumatura_senza_nome_2-3" x1="3087.14" y1="4294" x2="3087.81" y2="4294" xlink:href="#Sfumatura_senza_nome_2"/><clipPath id="clip-path-17" transform="translate(-1412 -1766.05)"><path class="cls-1" d="M2150.15,1900.51c0,11.88,10.26,21.53,22.94,21.53s22.94-9.66,22.94-21.53-10.3-21.55-22.94-21.55-22.94,9.63-22.94,21.55"/></clipPath><clipPath id="clip-path-18" transform="translate(-1412 -1766.05)"><path class="cls-1" d="M2181.52,1936.57a9.13,9.13,0,0,0,9.4,8.83c5.19,0,9.42-4,9.42-8.83s-4.23-8.84-9.42-8.84a9.12,9.12,0,0,0-9.4,8.84"/></clipPath></defs><title>Pass shopping consumer-footer</title><rect class="cls-2" x="919.49" y="72.96" width="152.29" height="102.8"/><rect class="cls-2" x="913.97" y="79.05" width="163.33" height="21.32"/><rect class="cls-2" x="965.84" y="39.84" width="59.59" height="17.52"/><rect class="cls-2" x="927.47" y="39.84" width="4.7" height="17.52"/><rect class="cls-2" x="1060.57" y="39.84" width="4.7" height="17.52"/><rect class="cls-2" x="923.35" y="41.75" width="144.57" height="3.8"/><rect class="cls-2" x="913.97" y="108.37" width="163.33" height="21.32"/><rect class="cls-2" x="913.97" y="141.26" width="163.33" height="21.33"/><rect class="cls-3" x="922.8" y="54.31" width="145.67" height="21.31"/><rect class="cls-2" x="922.8" y="54.31" width="145.67" height="21.31"/><rect class="cls-2" x="922.8" y="56.59" width="145.67" height="21.32"/><g class="cls-4"><rect class="cls-2" x="963.87" y="18.85" width="17.84" height="16.76"/></g><rect class="cls-2" x="971.76" y="30.61" width="2.06" height="15.48"/><g class="cls-5"><rect class="cls-2" x="986.85" y="18.85" width="17.85" height="16.76"/></g><rect class="cls-2" x="994.74" y="30.61" width="2.05" height="15.48"/><rect class="cls-2" x="994.74" y="30.61" width="2.05" height="15.48"/><g class="cls-6"><rect class="cls-2" x="1008.58" y="18.85" width="17.85" height="16.76"/></g><rect class="cls-2" x="1016.47" y="30.61" width="2.05" height="15.48"/><rect class="cls-2" x="852.11" y="137.53" width="59.21" height="24.91"/><g class="cls-7"><rect class="cls-8" x="852.11" y="122.71" width="59.21" height="14.81"/></g><polygon class="cls-2" points="852.07 137.54 911.28 137.54 881.67 122.73 852.07 137.54"/><rect class="cls-2" x="851.57" y="160.41" width="171.66" height="34.82"/><rect class="cls-9" x="1269.32" y="52.52" width="93.43" height="145.3"/><rect class="cls-10" x="1130.14" y="39.88" width="85.1" height="68.4"/><rect class="cls-10" x="1093.83" y="71.67" width="157.73" height="121.91"/><rect class="cls-10" x="1091.81" y="74.15" width="161.76" height="6.37"/><polygon class="cls-10" points="1093.83 71.67 1251.56 71.67 1172.69 49.91 1093.83 71.67"/><rect class="cls-11" x="871.53" y="155.74" width="65.84" height="33.3"/><polygon class="cls-11" points="868.17 156.89 934.01 156.89 901.09 123.97 868.17 156.89"/><rect class="cls-11" x="888.41" y="155.74" width="65.84" height="33.3"/><rect class="cls-11" x="888.41" y="188.48" width="83.5" height="8.68"/><rect class="cls-11" x="871.54" y="188.48" width="83.5" height="8.68"/><rect class="cls-11" x="880.32" y="184.51" width="83.5" height="8.68"/><rect class="cls-11" x="963.25" y="188.09" width="8.68" height="1.31"/><rect class="cls-11" x="961.97" y="186.78" width="8.68" height="1.32"/><rect class="cls-11" x="960.69" y="185.47" width="8.68" height="1.31"/><rect class="cls-11" x="951.13" y="184.17" width="16.96" height="1.31"/><rect class="cls-11" x="952.06" y="182.86" width="14.75" height="1.39"/><polygon class="cls-11" points="892.78 156.89 958.62 156.89 925.7 123.97 892.78 156.89"/><rect class="cls-11" x="961.78" y="163.1" width="2.84" height="26.31"/><rect class="cls-11" x="953.79" y="161.97" width="13.9" height="6.2"/><rect class="cls-12" x="1076.97" y="135.93" width="132.28" height="58.43"/><polygon class="cls-12" points="1105.72 135.93 1180.49 135.93 1143.11 98.55 1105.72 135.93"/><rect class="cls-13" x="979.03" y="139.95" width="43.33" height="58.66"/><rect class="cls-13" x="1016.24" y="160.69" width="54.73" height="37.91"/><polygon class="cls-13" points="979.03 139.95 1022.35 139.95 1000.69 118.29 979.03 139.95"/><rect class="cls-13" x="1047.72" y="164.3" width="25.34" height="34.31"/><rect class="cls-13" x="976.99" y="164.3" width="25.33" height="34.31"/><polygon class="cls-13" points="1045.96 164.79 1071.3 164.79 1058.63 152.12 1045.96 164.79"/><polygon class="cls-13" points="1021.81 164.79 1047.15 164.79 1034.47 152.12 1021.81 164.79"/><rect class="cls-14" x="1265.27" y="69.9" width="68.35" height="128.71"/><polygon class="cls-14" points="1265.22 71.25 1333.57 71.25 1299.39 47.43 1265.22 71.25"/><rect class="cls-14" x="1228.24" y="187.88" width="142.82" height="10.73"/><rect class="cls-14" x="1234.37" y="182.7" width="130.56" height="10.72"/><rect class="cls-14" x="1252.42" y="86.54" width="94.48" height="107.48"/><rect class="cls-14" x="1247.14" y="86.54" width="105.03" height="5.89"/><rect class="cls-14" x="1247.14" y="117.62" width="105.03" height="5.89"/><rect class="cls-14" x="1247.14" y="151.29" width="105.03" height="5.89"/><g class="cls-15"><rect class="cls-16" x="1194.69" y="112.92" width="45.88" height="43.08"/></g><rect class="cls-16" x="1214.99" y="143.15" width="5.28" height="55.21"/><g class="cls-17"><rect class="cls-14" x="1226.06" y="161.69" width="18.82" height="17.67"/></g><rect class="cls-14" x="1234.39" y="174.09" width="2.17" height="16.32"/><rect class="cls-18" x="844.24" y="193.64" width="531.36" height="6.36"/><path class="cls-19" d="M2764.81,1904.44a5.1,5.1,0,0,1-3.86,5c-1.53,11.27-8.11,19.78-16,19.78s-14.46-8.51-16-19.78a5,5,0,1,1,3-.22c1.34,9.69,6.67,17,13,17s11.69-7.27,13-17a5.13,5.13,0,0,1-3.18-4.77,5,5,0,1,1,10,0m18.34,52.38-10.79-62.76a1.77,1.77,0,0,0-1.43-1.71h-52.27a1.77,1.77,0,0,0-1.43,1.71l-10.79,62.76a3.37,3.37,0,0,0,.25,2,1.4,1.4,0,0,0,1.17.9h73.86a1.4,1.4,0,0,0,1.17-.9,3.37,3.37,0,0,0,.26-2" transform="translate(-1412 -1766.05)"/><rect class="cls-2" x="68.36" y="84.57" width="138.37" height="93.4"/><rect class="cls-2" x="63.35" y="90.11" width="148.39" height="19.37"/><rect class="cls-2" x="110.48" y="54.48" width="54.14" height="15.92"/><rect class="cls-2" x="75.62" y="54.48" width="4.27" height="15.92"/><rect class="cls-2" x="196.55" y="54.48" width="4.27" height="15.92"/><rect class="cls-2" x="71.88" y="56.22" width="131.35" height="3.45"/><rect class="cls-2" x="63.35" y="116.75" width="148.39" height="19.37"/><rect class="cls-2" x="63.35" y="146.63" width="148.39" height="19.38"/><rect class="cls-3" x="71.37" y="67.63" width="132.35" height="19.36"/><rect class="cls-2" x="71.37" y="67.63" width="132.35" height="19.36"/><rect class="cls-2" x="71.37" y="69.7" width="132.35" height="19.37"/><g class="cls-20"><rect class="cls-2" x="108.69" y="35.42" width="16.21" height="15.23"/></g><rect class="cls-2" x="115.86" y="46.1" width="1.87" height="14.07"/><g class="cls-21"><rect class="cls-2" x="129.57" y="35.42" width="16.22" height="15.23"/></g><rect class="cls-2" x="136.74" y="46.1" width="1.86" height="14.07"/><rect class="cls-2" x="136.74" y="46.1" width="1.86" height="14.07"/><g class="cls-22"><rect class="cls-2" x="149.31" y="35.42" width="16.22" height="15.23"/></g><rect class="cls-2" x="156.48" y="46.1" width="1.87" height="14.07"/><rect class="cls-2" x="7.15" y="143.24" width="53.8" height="22.64"/><g class="cls-23"><rect class="cls-24" x="7.15" y="129.78" width="53.8" height="13.46"/></g><polygon class="cls-2" points="7.11 143.25 60.91 143.25 34.01 129.8 7.11 143.25"/><rect class="cls-2" x="6.66" y="164.03" width="155.96" height="31.63"/><rect class="cls-10" x="259.76" y="54.52" width="77.32" height="62.14"/><rect class="cls-10" x="226.76" y="83.4" width="143.31" height="110.76"/><rect class="cls-10" x="224.93" y="85.65" width="146.97" height="5.78"/><polygon class="cls-10" points="226.76 83.41 370.07 83.41 298.42 63.63 226.76 83.41"/><rect class="cls-11" x="24.79" y="159.79" width="59.82" height="30.26"/><polygon class="cls-11" points="21.74 160.83 81.56 160.83 51.65 130.93 21.74 160.83"/><rect class="cls-11" x="40.13" y="159.79" width="59.82" height="30.26"/><rect class="cls-11" x="40.13" y="189.53" width="75.86" height="7.88"/><rect class="cls-11" x="24.8" y="189.53" width="75.86" height="7.88"/><rect class="cls-11" x="32.78" y="185.93" width="75.86" height="7.88"/><rect class="cls-11" x="108.13" y="189.18" width="7.89" height="1.19"/><rect class="cls-11" x="106.97" y="187.99" width="7.89" height="1.2"/><rect class="cls-11" x="105.8" y="186.8" width="7.88" height="1.19"/><rect class="cls-11" x="97.12" y="185.61" width="15.41" height="1.19"/><rect class="cls-11" x="97.96" y="184.43" width="13.4" height="1.26"/><polygon class="cls-11" points="44.1 160.83 103.92 160.83 74 130.93 44.1 160.83"/><rect class="cls-11" x="106.79" y="166.48" width="2.58" height="23.91"/><rect class="cls-11" x="99.53" y="165.45" width="12.63" height="5.63"/><rect class="cls-12" x="211.44" y="141.79" width="120.18" height="53.08"/><polygon class="cls-12" points="237.57 141.79 305.5 141.79 271.54 107.82 237.57 141.79"/><rect class="cls-13" x="122.46" y="145.44" width="39.36" height="53.3"/><rect class="cls-13" x="156.27" y="164.29" width="49.73" height="34.45"/><polygon class="cls-13" points="122.46 145.44 161.82 145.44 142.14 125.76 122.46 145.44"/><rect class="cls-13" x="184.87" y="167.57" width="23.02" height="31.17"/><rect class="cls-13" x="120.61" y="167.57" width="23.02" height="31.17"/><polygon class="cls-13" points="183.28 168.01 206.3 168.01 194.79 156.5 183.28 168.01"/><polygon class="cls-13" points="161.33 168.01 184.35 168.01 172.84 156.5 161.33 168.01"/><rect class="cls-14" x="382.53" y="81.79" width="62.1" height="116.94"/><polygon class="cls-14" points="382.49 83.02 444.58 83.02 413.53 61.38 382.49 83.02"/><rect class="cls-14" x="348.88" y="188.99" width="129.76" height="9.75"/><rect class="cls-14" x="354.45" y="184.28" width="118.62" height="9.74"/><rect class="cls-14" x="370.85" y="96.91" width="85.84" height="97.65"/><rect class="cls-14" x="366.05" y="96.91" width="95.42" height="5.35"/><rect class="cls-14" x="366.05" y="125.15" width="95.42" height="5.35"/><rect class="cls-14" x="366.05" y="155.74" width="95.42" height="5.35"/><g class="cls-25"><rect class="cls-16" x="318.41" y="120.88" width="41.68" height="39.14"/></g><rect class="cls-16" x="336.84" y="148.35" width="4.8" height="50.16"/><g class="cls-26"><rect class="cls-14" x="346.91" y="165.19" width="17.1" height="16.06"/></g><rect class="cls-14" x="354.47" y="176.46" width="1.97" height="14.83"/><rect class="cls-18" y="194.22" width="482.77" height="5.78"/><path class="cls-19" d="M1874.06,1910.07a4.64,4.64,0,0,1-3.51,4.53c-1.39,10.24-7.37,18-14.53,18s-13.14-7.73-14.53-18a4.55,4.55,0,1,1,2.69-.2c1.22,8.81,6.06,15.42,11.84,15.42s10.62-6.61,11.84-15.42a4.66,4.66,0,0,1-2.89-4.33,4.55,4.55,0,1,1,9.09,0m16.66,47.59-9.81-57a1.61,1.61,0,0,0-1.3-1.55h-47.49a1.61,1.61,0,0,0-1.3,1.55l-9.81,57a3.06,3.06,0,0,0,.23,1.81,1.27,1.27,0,0,0,1.07.82h67.1a1.27,1.27,0,0,0,1.07-.82,3.06,3.06,0,0,0,.23-1.81" transform="translate(-1412 -1766.05)"/><rect class="cls-2" x="462.94" y="72.96" width="152.29" height="102.8"/><rect class="cls-2" x="457.42" y="79.05" width="163.33" height="21.32"/><rect class="cls-2" x="509.29" y="39.84" width="59.59" height="17.52"/><rect class="cls-2" x="470.92" y="39.84" width="4.7" height="17.52"/><rect class="cls-2" x="604.02" y="39.84" width="4.7" height="17.52"/><rect class="cls-2" x="466.81" y="41.75" width="144.57" height="3.8"/><rect class="cls-2" x="457.42" y="108.37" width="163.33" height="21.32"/><rect class="cls-2" x="457.42" y="141.26" width="163.33" height="21.33"/><rect class="cls-3" x="466.25" y="54.31" width="145.67" height="21.31"/><rect class="cls-2" x="466.25" y="54.31" width="145.67" height="21.31"/><rect class="cls-2" x="466.25" y="56.59" width="145.67" height="21.32"/><g class="cls-27"><rect class="cls-2" x="507.33" y="18.85" width="17.84" height="16.76"/></g><rect class="cls-2" x="515.21" y="30.61" width="2.06" height="15.48"/><g class="cls-28"><rect class="cls-2" x="530.3" y="18.85" width="17.85" height="16.76"/></g><rect class="cls-2" x="538.2" y="30.61" width="2.05" height="15.48"/><rect class="cls-2" x="538.2" y="30.61" width="2.05" height="15.48"/><g class="cls-29"><rect class="cls-2" x="552.03" y="18.85" width="17.85" height="16.76"/></g><rect class="cls-2" x="559.93" y="30.61" width="2.05" height="15.48"/><rect class="cls-2" x="395.56" y="137.53" width="59.21" height="24.91"/><g class="cls-30"><rect class="cls-31" x="395.56" y="122.71" width="59.21" height="14.81"/></g><polygon class="cls-2" points="395.52 137.54 454.74 137.54 425.13 122.73 395.52 137.54"/><rect class="cls-2" x="395.02" y="160.41" width="171.66" height="34.82"/><rect class="cls-9" x="842.93" width="61.2" height="197.82"/><rect class="cls-9" x="812.77" y="52.52" width="93.43" height="145.3"/><rect class="cls-10" x="673.6" y="39.88" width="85.1" height="68.4"/><rect class="cls-10" x="637.28" y="71.67" width="157.73" height="121.91"/><rect class="cls-10" x="635.27" y="74.15" width="161.76" height="6.37"/><polygon class="cls-10" points="637.28 71.67 795.01 71.67 716.15 49.91 637.28 71.67"/><rect class="cls-11" x="414.98" y="155.74" width="65.84" height="33.3"/><polygon class="cls-11" points="411.62 156.89 477.46 156.89 444.54 123.97 411.62 156.89"/><rect class="cls-11" x="431.86" y="155.74" width="65.84" height="33.3"/><rect class="cls-11" x="431.86" y="188.48" width="83.5" height="8.68"/><rect class="cls-11" x="415" y="188.48" width="83.5" height="8.68"/><rect class="cls-11" x="423.77" y="184.51" width="83.5" height="8.68"/><rect class="cls-11" x="506.71" y="188.09" width="8.68" height="1.31"/><rect class="cls-11" x="505.43" y="186.78" width="8.68" height="1.32"/><rect class="cls-11" x="504.15" y="185.47" width="8.68" height="1.31"/><rect class="cls-11" x="494.59" y="184.17" width="16.96" height="1.31"/><rect class="cls-11" x="495.51" y="182.86" width="14.75" height="1.39"/><polygon class="cls-11" points="436.23 156.89 502.07 156.89 469.15 123.97 436.23 156.89"/><rect class="cls-11" x="505.24" y="163.1" width="2.84" height="26.31"/><rect class="cls-11" x="497.24" y="161.97" width="13.9" height="6.2"/><rect class="cls-12" x="620.42" y="135.93" width="132.28" height="58.43"/><polygon class="cls-12" points="649.18 135.93 723.94 135.93 686.56 98.55 649.18 135.93"/><rect class="cls-13" x="522.48" y="139.95" width="43.33" height="58.66"/><rect class="cls-13" x="559.7" y="160.69" width="54.73" height="37.91"/><polygon class="cls-13" points="522.48 139.95 565.81 139.95 544.14 118.29 522.48 139.95"/><rect class="cls-13" x="591.18" y="164.3" width="25.34" height="34.31"/><rect class="cls-13" x="520.44" y="164.3" width="25.33" height="34.31"/><polygon class="cls-13" points="589.42 164.79 614.76 164.79 602.09 152.12 589.42 164.79"/><polygon class="cls-13" points="565.26 164.79 590.6 164.79 577.93 152.12 565.26 164.79"/><rect class="cls-16" x="808.72" y="69.9" width="68.35" height="128.71"/><polygon class="cls-16" points="808.68 71.25 877.02 71.25 842.85 47.43 808.68 71.25"/><rect class="cls-16" x="771.69" y="187.88" width="142.82" height="10.73"/><rect class="cls-16" x="777.82" y="182.7" width="130.56" height="10.72"/><rect class="cls-16" x="795.87" y="86.54" width="94.48" height="107.48"/><rect class="cls-16" x="790.59" y="86.54" width="105.03" height="5.89"/><rect class="cls-16" x="790.59" y="117.62" width="105.03" height="5.89"/><rect class="cls-16" x="790.59" y="151.29" width="105.03" height="5.89"/><g class="cls-32"><rect class="cls-16" x="738.15" y="112.92" width="45.88" height="43.08"/></g><rect class="cls-16" x="758.44" y="143.15" width="5.28" height="55.21"/><g class="cls-33"><rect class="cls-16" x="769.52" y="161.69" width="18.82" height="17.67"/></g><rect class="cls-16" x="777.84" y="174.09" width="2.17" height="16.32"/><rect class="cls-18" x="387.7" y="193.64" width="531.36" height="6.36"/><path class="cls-12" d="M2308.26,1904.44a5.1,5.1,0,0,1-3.86,5c-1.53,11.27-8.11,19.78-16,19.78s-14.46-8.51-16-19.78a5,5,0,1,1,3-.22c1.34,9.69,6.67,17,13,17s11.69-7.27,13-17a5.13,5.13,0,0,1-3.18-4.77,5,5,0,1,1,10,0m18.34,52.38-10.79-62.76a1.77,1.77,0,0,0-1.43-1.71h-52.27a1.77,1.77,0,0,0-1.43,1.71l-10.79,62.76a3.37,3.37,0,0,0,.25,2,1.4,1.4,0,0,0,1.17.9h73.86a1.4,1.4,0,0,0,1.17-.9,3.37,3.37,0,0,0,.26-2" transform="translate(-1412 -1766.05)"/></svg>