<svg xmlns="http://www.w3.org/2000/svg" viewBox="0 0 124.75 23.81"><defs><style>.cls-1{isolation:isolate;}.cls-2{fill:#1c223f;}.cls-3{fill:#f09239;mix-blend-mode:multiply;}.cls-4{fill:#20325b;}</style></defs><title>Pass shopping consumer-partner4</title><g class="cls-1"><g id="Livello_1" data-name="Livello 1"><path class="cls-2" d="M748.63,3581.5a1.26,1.26,0,0,0-1.29,1.29v7.71c0,2.6-1.43,4.15-3.82,4.15s-3.82-1.55-3.82-4.15v-7.71a1.26,1.26,0,0,0-1.29-1.29,1.25,1.25,0,0,0-1.26,1.29v8c0,3.8,2.49,6.35,6.19,6.35h0.38c3.7,0,6.19-2.55,6.19-6.35v-8A1.25,1.25,0,0,0,748.63,3581.5Z" transform="translate(-706.03 -3575.94)"/><path class="cls-2" d="M802.78,3581.5a1.26,1.26,0,0,0-1.29,1.29v7.71c0,2.6-1.43,4.15-3.82,4.15s-3.82-1.55-3.82-4.15v-7.71a1.26,1.26,0,0,0-1.29-1.29,1.25,1.25,0,0,0-1.26,1.29v8c0,3.8,2.49,6.35,6.19,6.35h0.38c3.7,0,6.19-2.55,6.19-6.35v-8A1.25,1.25,0,0,0,802.78,3581.5Z" transform="translate(-706.03 -3575.94)"/><path class="cls-2" d="M759.56,3581.28h-0.38c-3.7,0-6.19,2.55-6.19,6.35v8a1.25,1.25,0,0,0,1.26,1.29,1.26,1.26,0,0,0,1.29-1.29v-7.71c0-2.6,1.43-4.15,3.82-4.15s3.82,1.55,3.82,4.15v7.71a1.26,1.26,0,0,0,1.29,1.29,1.25,1.25,0,0,0,1.26-1.29v-8C765.74,3583.83,763.26,3581.28,759.56,3581.28Z" transform="translate(-706.03 -3575.94)"/><path class="cls-2" d="M770.11,3581.5a1.26,1.26,0,0,0-1.26,1.29v12.8a1.26,1.26,0,0,0,1.29,1.29,1.25,1.25,0,0,0,1.26-1.29v-12.8A1.26,1.26,0,0,0,770.11,3581.5Z" transform="translate(-706.03 -3575.94)"/><path class="cls-2" d="M770.11,3575.94a1.41,1.41,0,0,0-1.43,1.43v0.46a1.41,1.41,0,0,0,1.43,1.43,1.44,1.44,0,0,0,1.46-1.43v-0.46A1.44,1.44,0,0,0,770.11,3575.94Z" transform="translate(-706.03 -3575.94)"/><path class="cls-2" d="M781.45,3581.28c-4.05,0-7.23,3.46-7.23,7.88v0.05c0,4.49,3.2,7.88,7.44,7.88a7.65,7.65,0,0,0,5.87-2.45,1.23,1.23,0,0,0-.87-2.13,1.19,1.19,0,0,0-.86.36,5.57,5.57,0,0,1-4.09,1.74,4.85,4.85,0,0,1-4.79-4.28h10.25a1.28,1.28,0,0,0,1.26-1.24C788.45,3584.57,785.51,3581.28,781.45,3581.28Zm-0.05,2.45c1.84,0,3.88,1.12,4.33,4.2h-8.78A4.7,4.7,0,0,1,781.39,3583.72Z" transform="translate(-706.03 -3575.94)"/><path class="cls-2" d="M823,3581.28a7.77,7.77,0,0,0-7.8,7.91v0.05a7.77,7.77,0,1,0,15.54-.05v-0.05A7.72,7.72,0,0,0,823,3581.28Zm0,13.34a5.23,5.23,0,0,1-5.13-5.43v-0.05a5.12,5.12,0,0,1,5.08-5.38,5.23,5.23,0,0,1,5.13,5.43v0.05A5.12,5.12,0,0,1,823,3594.62Z" transform="translate(-706.03 -3575.94)"/><path class="cls-2" d="M813.76,3581.5h-0.43c-3.7,0-6.19,2.55-6.19,6.35v7.74a1.25,1.25,0,0,0,1.26,1.29,1.26,1.26,0,0,0,1.29-1.29v-7.49c0-2.66,1.41-4.22,3.78-4.15h0.07a1.19,1.19,0,0,0,1.3-1,1.28,1.28,0,0,0-.25-1A1.16,1.16,0,0,0,813.76,3581.5Z" transform="translate(-706.03 -3575.94)"/><path class="cls-3" d="M707.43,3590a16.78,16.78,0,0,1-1.29-8.34,4.24,4.24,0,0,1,8.32,0,16.78,16.78,0,0,1-1.29,8.34A3.41,3.41,0,0,1,707.43,3590Zm10.6,9.72c4.27-.3,7.77-2.76,10.39-7.33a18.46,18.46,0,0,0,2.37-8,17.69,17.69,0,0,0-.2-4.13,5.42,5.42,0,0,0-5.67-4.35,5.52,5.52,0,0,0-5.67,5.46c-0.19,4.08.07,9.8-3.68,12.5-1.15.83-2.73,1.4-2.74,3.1C712.8,3599.49,716.25,3599.85,718,3599.73Z" transform="translate(-706.03 -3575.94)"/><path class="cls-4" d="M748.63,3581.5a1.26,1.26,0,0,0-1.29,1.29v7.71c0,2.6-1.43,4.15-3.82,4.15s-3.82-1.55-3.82-4.15v-7.71a1.26,1.26,0,0,0-1.29-1.29,1.25,1.25,0,0,0-1.26,1.29v8c0,3.8,2.49,6.35,6.19,6.35h0.38c3.7,0,6.19-2.55,6.19-6.35v-8A1.25,1.25,0,0,0,748.63,3581.5Z" transform="translate(-706.03 -3575.94)"/><path class="cls-4" d="M802.78,3581.5a1.26,1.26,0,0,0-1.29,1.29v7.71c0,2.6-1.43,4.15-3.82,4.15s-3.82-1.55-3.82-4.15v-7.71a1.26,1.26,0,0,0-1.29-1.29,1.25,1.25,0,0,0-1.26,1.29v8c0,3.8,2.49,6.35,6.19,6.35h0.38c3.7,0,6.19-2.55,6.19-6.35v-8A1.25,1.25,0,0,0,802.78,3581.5Z" transform="translate(-706.03 -3575.94)"/><path class="cls-4" d="M759.56,3581.28h-0.38c-3.7,0-6.19,2.55-6.19,6.35v8a1.25,1.25,0,0,0,1.26,1.29,1.26,1.26,0,0,0,1.29-1.29v-7.71c0-2.6,1.43-4.15,3.82-4.15s3.82,1.55,3.82,4.15v7.71a1.26,1.26,0,0,0,1.29,1.29,1.25,1.25,0,0,0,1.26-1.29v-8C765.74,3583.83,763.26,3581.28,759.56,3581.28Z" transform="translate(-706.03 -3575.94)"/><path class="cls-4" d="M770.11,3581.5a1.26,1.26,0,0,0-1.26,1.29v12.8a1.26,1.26,0,0,0,1.29,1.29,1.25,1.25,0,0,0,1.26-1.29v-12.8A1.26,1.26,0,0,0,770.11,3581.5Z" transform="translate(-706.03 -3575.94)"/><path class="cls-4" d="M770.11,3575.94a1.41,1.41,0,0,0-1.43,1.43v0.46a1.41,1.41,0,0,0,1.43,1.43,1.44,1.44,0,0,0,1.46-1.43v-0.46A1.44,1.44,0,0,0,770.11,3575.94Z" transform="translate(-706.03 -3575.94)"/><path class="cls-4" d="M781.45,3581.28c-4.05,0-7.23,3.46-7.23,7.88v0.05c0,4.49,3.2,7.88,7.44,7.88a7.65,7.65,0,0,0,5.87-2.45,1.23,1.23,0,0,0-.87-2.13,1.19,1.19,0,0,0-.86.36,5.57,5.57,0,0,1-4.09,1.74,4.85,4.85,0,0,1-4.79-4.28h10.25a1.28,1.28,0,0,0,1.26-1.24C788.45,3584.57,785.51,3581.28,781.45,3581.28Zm-0.05,2.45c1.84,0,3.88,1.12,4.33,4.2h-8.78A4.7,4.7,0,0,1,781.39,3583.72Z" transform="translate(-706.03 -3575.94)"/><path class="cls-4" d="M823,3581.28a7.77,7.77,0,0,0-7.8,7.91v0.05a7.77,7.77,0,1,0,15.54-.05v-0.05A7.72,7.72,0,0,0,823,3581.28Zm0,13.34a5.23,5.23,0,0,1-5.13-5.43v-0.05a5.12,5.12,0,0,1,5.08-5.38,5.23,5.23,0,0,1,5.13,5.43v0.05A5.12,5.12,0,0,1,823,3594.62Z" transform="translate(-706.03 -3575.94)"/><path class="cls-4" d="M813.76,3581.5h-0.43c-3.7,0-6.19,2.55-6.19,6.35v7.74a1.25,1.25,0,0,0,1.26,1.29,1.26,1.26,0,0,0,1.29-1.29v-7.49c0-2.66,1.41-4.22,3.78-4.15h0.07a1.19,1.19,0,0,0,1.3-1,1.28,1.28,0,0,0-.25-1A1.16,1.16,0,0,0,813.76,3581.5Z" transform="translate(-706.03 -3575.94)"/></g></g></svg>